<?xml version="1.0" encoding="UTF-8" standalone="no"?>
<!-- Created with Inkscape (http://www.inkscape.org/) -->

<svg
   width="402.0997mm"
   height="380.66495mm"
   viewBox="0 0 402.0997 380.66495"
   version="1.1"
   id="svg1"
   xml:space="preserve"
   inkscape:version="1.3.2 (1:1.3.2+202311252150+091e20ef0f)"
   sodipodi:docname="favicon.svg"
   xmlns:inkscape="http://www.inkscape.org/namespaces/inkscape"
   xmlns:sodipodi="http://sodipodi.sourceforge.net/DTD/sodipodi-0.dtd"
   xmlns:xlink="http://www.w3.org/1999/xlink"
   xmlns="http://www.w3.org/2000/svg"
   xmlns:svg="http://www.w3.org/2000/svg"><sodipodi:namedview
     id="namedview1"
     pagecolor="#ffffff"
     bordercolor="#000000"
     borderopacity="0.25"
     inkscape:showpageshadow="2"
     inkscape:pageopacity="0.0"
     inkscape:pagecheckerboard="0"
     inkscape:deskcolor="#d1d1d1"
     inkscape:document-units="mm"
     inkscape:zoom="0.092871423"
     inkscape:cx="909.86008"
     inkscape:cy="2035.0717"
     inkscape:window-width="1452"
     inkscape:window-height="752"
     inkscape:window-x="468"
     inkscape:window-y="148"
     inkscape:window-maximized="0"
     inkscape:current-layer="layer1" /><defs
     id="defs1"><linearGradient
       id="linearGradient6"
       inkscape:collect="always"><stop
         style="stop-color:#413cde;stop-opacity:1;"
         offset="0"
         id="stop7" /><stop
         style="stop-color:#2378c9;stop-opacity:1;"
         offset="0.49070662"
         id="stop9" /><stop
         style="stop-color:#e94fdf;stop-opacity:1;"
         offset="1"
         id="stop8" /></linearGradient><linearGradient
       inkscape:collect="always"
       xlink:href="#linearGradient6"
       id="linearGradient8"
       x1="-119.57971"
       y1="196.2903"
       x2="261.06924"
       y2="196.2903"
       gradientUnits="userSpaceOnUse"
       gradientTransform="rotate(89.978358,163.69135,236.6276)" /></defs><g
     inkscape:label="Layer 1"
     inkscape:groupmode="layer"
     id="layer1"
     transform="translate(-2.936052,46.702711)"><path
       style="fill:url(#linearGradient8)"
       d="m 14.907812,-14.979102 c 12.94514,-0.004 14.42553,0.113211 18.81868,1.489632 4.52283,1.417052 9.83391,4.7227456 13.16336,8.1930786 4.12166,4.296053 7.14911,9.950005 8.2734,15.4510894 0.25223,1.234175 0.51288,1.799583 0.98422,2.135077 1.58744,1.129904 82.458878,47.119707 82.811878,47.093287 0.38931,-0.0291 117.92141,-49.166599 118.15073,-49.3960966 0.0643,-0.06438 0.30034,-1.353374 0.52448,-2.8644538 3.69994,-24.9436056 22.44768,-45.6676996 47.0184,-51.9749806 5.87463,-1.50801 8.76903,-1.847583 15.77049,-1.850227 7.00146,-0.0026 9.89612,0.334742 15.77188,1.838312 22.41557,5.736014 40.00622,23.313371 45.75916,45.72460855 1.50801,5.87462805 1.84759,8.76903385 1.85024,15.77049145 0.003,7.001459 -0.33476,9.896119 -1.83833,15.771885 -1.16452,4.550796 -2.3993,7.862528 -4.62657,12.408684 -3.01545,6.154927 -6.60132,11.178427 -11.82376,16.564107 l -2.71741,2.80233 0.0195,51.724448 0.0195,51.72444 1.3894,0.89934 c 3.0457,1.97144 5.90902,5.49064 7.51732,9.23926 1.62402,3.78526 1.68176,4.49593 1.69198,20.82547 l 0.01,14.76167 15.79693,23.14508 c 8.68831,12.7298 15.79492,23.3832 15.79246,23.67424 -0.004,0.50796 -31.12698,73.36903 -31.50383,73.75336 -0.17168,0.17508 -37.6827,-19.02226 -38.14626,-19.52243 -0.117,-0.12624 4.46572,-12.11478 10.18382,-26.64119 l 10.39649,-26.41167 -15.00876,-21.13319 c -8.25481,-11.62327 -15.06829,-21.13318 -15.14105,-21.13316 -0.0728,3e-5 -6.87904,9.51509 -15.12508,21.14459 l -14.99279,21.14452 10.41648,26.40381 c 5.72907,14.52209 10.32084,26.50716 10.20394,26.63349 -0.46318,0.50052 -37.95969,19.7262 -38.13149,19.55124 -0.37707,-0.38397 -31.55486,-73.22152 -31.5596,-73.72953 -0.003,-0.29104 7.06773,-10.89027 15.71213,-23.55386 l 15.71707,-23.02469 0.14243,-15.74275 c 0.15878,-17.55006 0.0916,-16.87532 2.09614,-21.05574 1.6864,-3.51691 4.83231,-7.03251 8.03421,-8.9783 0.40231,-0.24448 0.42886,-3.8225 0.34686,-46.739 l -0.0888,-46.474248 -68.72339,28.761888 c -63.27194,26.48036 -68.73504,28.81525 -68.87019,29.43467 -0.91122,4.17616 -1.63321,6.07353 -3.26041,8.56819 -1.61796,2.48052 -3.77511,4.64613 -6.19904,6.22337 -1.04074,0.67721 -20.72692,12.01188 -43.747078,25.18818 l -41.85481,23.95689 0.0137,38.36829 c 0.0119,33.49065 -0.0384,38.66679 -0.39614,40.71624 -2.35613,13.49997 -12.70363,23.85529 -26.20182,26.22162 -1.88895,0.33115 -4.68686,0.41261 -14.32004,0.41693 l -11.97239,0.005 -0.06,-158.74999 -0.06,-158.74998 z m 41.15232,199.214872 c 0.073,-2e-5 18.00563,-10.21641 39.85018,-22.70307 28.648048,-16.37563 40.110168,-23.05921 41.126768,-23.98105 1.77317,-1.60789 2.96567,-3.94297 3.28569,-6.43384 0.32649,-2.54125 0.28861,-51.081948 -0.0417,-53.408648 -0.33048,-2.32799 -1.47031,-4.68678 -2.97699,-6.16062 -0.84062,-0.8223 -12.17028,-7.42124 -41.197428,-23.99537 -22.02088,-12.573641 -40.08333,-22.861144 -40.13878,-22.861123 -0.0554,2.1e-5 -0.0873,35.897383 -0.0707,79.771911 0.0166,43.87453 0.0899,79.77184 0.16293,79.77181 z m 21.3959,-87.488508 c 0.87642,-4.03726 2.60732,-7.07011 5.95036,-10.42617 2.1271,-2.13538 2.89931,-2.71568 5.02628,-3.77713 3.45534,-1.72436 5.98259,-2.325 9.78872,-2.32643 3.806118,-0.001 6.333808,0.59729 9.790448,2.31903 2.12777,1.05984 2.90043,1.63956 5.02914,3.77334 3.39275,3.40081 5.08942,6.39677 5.96925,10.5404 0.48098,2.265187 0.48404,6.822368 0.006,9.081408 -0.87388,4.13057 -3.16089,8.07425 -6.4325,11.0921 -4.15601,3.83366 -8.5672,5.53674 -14.346458,5.53892 -5.77927,0.002 -10.19174,-1.69756 -14.35065,-5.52808 -3.27389,-3.01538 -5.56388,-6.95733 -6.44088,-11.08724 -0.46381,-2.18417 -0.45844,-7.041471 0.0102,-9.200148 z M 268.22008,23.950417 c 1.2183,8.777192 4.78781,17.349311 10.23393,24.576595 2.07381,2.75206 7.39911,8.07335 10.15274,10.14508 7.19913,5.41637 15.61307,8.92292 24.55823,10.23474 3.79372,0.55636 10.81098,0.55371 14.60428,-0.006 8.94416,-1.31859 17.35545,-4.83149 24.55049,-10.2533 2.75206,-2.07381 8.07334,-7.39911 10.14507,-10.15274 5.41637,-7.199129 8.92292,-15.613074 10.23475,-24.558232 0.55635,-3.793721 0.5537,-10.810977 -0.006,-14.6042776 -1.31858,-8.94416185 -4.83149,-17.3554538 -10.25329,-24.5504864 -2.07381,-2.752067 -7.39912,-8.073346 -10.15275,-10.145086 -7.19912,-5.416372 -15.61307,-8.922914 -24.55823,-10.234736 -3.79372,-0.556357 -10.81098,-0.553706 -14.60427,0.0055 -8.94417,1.318578 -17.35546,4.831476 -24.55049,10.253285 -2.75207,2.07382 -8.07334,7.39912 -10.14507,10.152753 -8.50688,11.3068486 -12.13979,25.232475 -10.20987,39.136398 z M 299.67402,11.99665 c 0.86624,-3.9903266 2.60927,-7.0698704 5.82053,-10.2835484 4.39293,-4.3962551 8.76233,-6.213595 14.94484,-6.215931 6.18251,-0.0023 10.55328,1.8117039 14.94953,6.204639 4.39626,4.392936 6.2136,8.7623334 6.21594,14.9448464 0.002,6.182513 -1.8117,10.553283 -6.20464,14.949538 -4.39293,4.396254 -8.76234,6.213595 -14.94485,6.21593 -6.18251,0.0023 -10.55328,-1.811704 -14.94953,-6.204638 -3.26034,-3.257874 -4.96945,-6.301248 -5.8393,-10.397885 -0.46614,-2.195324 -0.4622,-7.049365 0.008,-9.212951 z m 26.13699,195.15598 37.04165,-0.014 -0.0129,-10.25259 c -0.007,-5.63893 -0.11808,-11.06928 -0.24708,-12.06743 -0.62813,-4.86007 -4.33991,-8.55224 -9.22987,-9.18112 -0.97201,-0.12502 -13.37589,-0.2229 -27.56417,-0.21754 -14.18828,0.005 -26.59206,0.11261 -27.56398,0.23836 -4.76164,0.61604 -8.62476,4.36985 -9.20951,8.94893 -0.10711,0.83874 -0.20856,6.25772 -0.22546,12.04218 l -0.0307,10.5172 z"
       id="path1" /></g></svg>
